#!OML:ASF \\sashay\E\Suitcase\Project 1\Capture day 1\Session 1\Male1.ASF
:FULLY-SPECIFIED
:DEGREES
127
root 1.30762 17.4528 -33.6677 5.5486 0.396778 -2.20781
lowerback 1.07932 -2.38403 1.40763
upperback -1.00345 -3.1086 3.3067
thorax -1.52533 -1.55177 2.67869
lowerneck -14.5876 -6.02898 -6.1113
upperneck 15.2454 -7.07969 1.14625
head 7.34435 -3.64358 0.604869
rclavicle -9.49197e-015 4.77083e-015
rhumerus -37.4795 -20.5094 -62.2074
rradius 19.9744
rwrist 3.1949
rhand -13.3434 15.6649
rfingers 7.12502
rthumb 12.7621 -13.9251
lclavicle -9.49197e-015 4.77083e-015
lhumerus -39.0069 2.69703 84.3196
lradius 41.0777
lwrist -4.64619
lhand -1.54784 41.303
lfingers 7.12502
lthumb 24.107 69.8085
rfemur -11.2138 0.893533 24.9618
rtibia 28.4672
rfoot -21.7089 -10.2114
rtoes 12.1332
lfemur -14.3323 -5.83868 -19.9121
ltibia 30.4112
lfoot -21.6783 3.21467
ltoes 3.82671
128
root 1.30443 17.4457 -33.667 5.51042 0.471368 -2.22527
lowerback 1.22979 -2.33813 1.35539
upperback -1.05676 -3.04069 3.34967
thorax -1.66194 -1.51649 2.75956
lowerneck -14.8913 -5.85422 -5.88099
upperneck 15.7115 -6.82861 0.881055
head 7.52278 -3.53573 0.495698
rclavicle -4.60683e-014 6.04305e-014
rhumerus -37.5677 -20.3092 -62.1473
rradius 20.1362
rwrist 2.96887
rhand -13.3479 15.3869
rfingers 7.12502
rthumb 12.7578 -14.2033
lclavicle -4.60683e-014 6.04305e-014
lhumerus -39.1406 2.72325 84.2999
lradius 41.054
lwrist -4.82599
lhand -1.49268 40.7079
lfingers 7.12502
lthumb 24.1599 69.2064
rfemur -11.1879 0.756333 25.0012
rtibia 28.5003
rfoot -21.6886 -9.94638
rtoes 11.7604
lfemur -14.3529 -5.50182 -19.9248
ltibia 30.3964
lfoot -21.5587 3.43911
ltoes 0.770212
129
root 1.3078 17.4429 -33.6641 5.52637 0.455068 -2.07593
lowerback 1.17181 -2.33251 1.30605
upperback -1.06337 -3.03653 3.30684
thorax -1.63604 -1.51412 2.74031
lowerneck -15.2218 -5.70133 -5.76284
upperneck 16.1727 -6.59553 0.703184
head 7.71427 -3.43538 0.430038
rclavicle -5.96354e-016 -1.19271e-014
rhumerus -37.4821 -20.1716 -62.1958
rradius 20.1918
rwrist 2.76792
rhand -13.2873 16.0297
rfingers 7.12502
rthumb 12.8162 -13.5569
lclavicle -5.96354e-016 -1.19271e-014
lhumerus -39.0863 2.83236 84.2706
lradius 40.7676
lwrist -4.95019
lhand -1.11909 41.5075
lfingers 7.12502
lthumb 24.5181 69.9579
rfemur -11.2348 0.703317 24.8324
rtibia 28.5773
rfoot -21.8374 -10.2106
rtoes 11.643
lfemur -14.3192 -5.45964 -20.1154
ltibia 30.3215
lfoot -21.5886 3.49136
ltoes 0.173225
130
root 1.30211 17.4469 -33.6616 5.44787 0.632486 -2.1648
lowerback 1.17263 -2.35699 1.29443
upperback -1.07274 -3.0676 3.41655
thorax -1.63848 -1.52897 2.86095
lowerneck -15.2855 -5.64755 -5.62904
upperneck 16.3351 -6.5097 0.490227
head 7.7643 -3.40772 0.345108
rclavicle -3.926e-014 5.40694e-014
rhumerus -37.6666 -21.2454 -61.2443
rradius 20.0114
rwrist 4.65295
rhand -12.4187 16.8657
rfingers 7.12502
rthumb 13.6535 -12.6664
lclavicle -3.926e-014 5.40694e-014
lhumerus -39.1361 2.90031 84.3255
lradius 40.627
lwrist -4.91358
lhand -1.12255 41.6137
lfingers 7.12502
lthumb 24.5147 70.0645
rfemur -11.129 0.621424 24.9539
rtibia 28.6036
rfoot -22.1583 -10.3901
rtoes 11.2735
lfemur -14.2097 -5.29783 -19.9881
ltibia 30.301
lfoot -21.8574 3.23688
ltoes 0.310199
131
root 1.30458 17.4357 -33.6659 5.43724 0.643327 -1.93228
lowerback 1.2718 -2.3532 1.14863
upperback -1.11378 -3.06208 3.33307
thorax -1.73334 -1.52443 2.86237
lowerneck -15.1678 -5.4742 -5.49254
upperneck 16.3382 -6.30511 0.453814
head 7.73234 -3.30643 0.338853
rclavicle 4.02042e-014 -1.82882e-014
rhumerus -37.6565 -20.9245 -61.4078
rradius 20.1535
rwrist 4.41013
rhand -12.4273 17.3302
rfingers 7.12502
rthumb 13.6452 -12.2025
lclavicle 4.02042e-014 -1.82882e-014
lhumerus -39.0771 3.01419 84.2316
lradius 40.2651
lwrist -5.15055
lhand -1.38274 41.6659
lfingers 7.12502
lthumb 24.2653 70.1503
rfemur -11.1729 0.658762 24.6724
rtibia 28.7056
rfoot -22.3937 -10.4311
rtoes 11.888
lfemur -14.2034 -5.61394 -20.2803
ltibia 30.2357
lfoot -21.627 3.68506
ltoes -0.708284
132
root 1.29898 17.4397 -33.6677 5.50771 0.756219 -2.03005
lowerback 1.24224 -2.36577 1.22012
upperback -1.18358 -3.07511 3.38443
thorax -1.789 -1.5311 2.87655
lowerneck -15.2014 -5.35324 -5.56152
upperneck 16.5314 -6.14957 0.592073
head 7.80453 -3.22466 0.409717
rclavicle 1.1281e-014 -1.90833e-014
rhumerus -37.6185 -20.9588 -61.3694
rradius 20.1591
rwrist 4.55387
rhand -12.7408 17.0443
rfingers 7.12502
rthumb 13.343 -12.5084
lclavicle 1.1281e-014 -1.90833e-014
lhumerus -39.0594 3.03456 84.1847
lradius 40.074
lwrist -5.18921
lhand -1.41289 41.7513
lfingers 7.12502
lthumb 24.2364 70.2396
rfemur -11.2461 0.641824 24.8272
rtibia 28.6748
rfoot -22.2339 -10.5217
rtoes 12.7561
lfemur -14.3079 -5.41398 -20.114
ltibia 30.2591
lfoot -21.7413 3.2391
ltoes -0.418928
133
root 1.29885 17.4364 -33.6682 5.53461 0.783698 -1.81507
lowerback 1.06859 -2.35082 1.0165
upperback -1.08705 -3.06885 3.33909
thorax -1.58423 -1.52705 2.93186
lowerneck -15.4068 -5.18057 -5.47302
upperneck 16.6417 -5.91899 0.582703
head 7.86658 -3.10991 0.413039
rclavicle 2.99668e-014 -3.02153e-014
rhumerus -37.3194 -20.9804 -61.4895
rradius 20.1512
rwrist 4.50916
rhand -13.1644 17.2293
rfingers 7.12502
rthumb 12.9347 -12.3498
lclavicle 2.99668e-014 -3.02153e-014
lhumerus -38.8196 3.14729 84.1389
lradius 39.7801
lwrist -5.35192
lhand -1.34276 41.6775
lfingers 7.12502
lthumb 24.3036 70.1568
rfemur -11.3048 0.530365 24.5666
rtibia 28.7807
rfoot -22.4489 -10.3385
rtoes 12.7875
lfemur -14.2978 -5.38258 -20.3682
ltibia 30.2003
lfoot -21.945 3.48836
ltoes -2.24589
134
root 1.29714 17.44 -33.6688 5.56971 0.815068 -1.79759
lowerback 1.00871 -2.36513 1.03655
upperback -1.10313 -3.089 3.32815
thorax -1.56794 -1.53742 2.90741
lowerneck -15.4079 -4.91876 -5.55591
upperneck 16.8167 -5.58033 0.779599
head 7.92296 -2.93649 0.529102
rclavicle -1.70955e-014 3.18055e-014
rhumerus -37.3064 -20.8286 -61.5769
rradius 20.3771
rwrist 4.56823
rhand -12.8276 17.5459
rfingers 7.12502
rthumb 13.2594 -12.0123
lclavicle -1.70955e-014 3.18055e-014
lhumerus -38.9289 3.26209 84.0211
lradius 39.6305
lwrist -5.57203
lhand -1.16789 41.684
lfingers 7.12502
lthumb 24.4713 70.1408
rfemur -11.363 0.666453 24.5502
rtibia 28.7775
rfoot -22.5724 -10.2407
rtoes 13.0453
lfemur -14.3495 -5.1785 -20.3573
ltibia 30.1991
lfoot -22.136 3.26589
ltoes -2.82473
135
root 1.29518 17.4345 -33.6724 5.60592 0.889149 -1.70734
lowerback 0.965526 -2.40594 0.996701
upperback -1.08784 -3.14631 3.30714
thorax -1.52458 -1.56601 2.90658
lowerneck -15.4576 -4.74661 -5.37527
upperneck 16.8019 -5.35469 0.632748
head 7.90972 -2.83195 0.477534
rclavicle 6.27663e-014 -7.15625e-015
rhumerus -37.1559 -21.2542 -61.4387
rradius 20.2505
rwrist 5.21931
rhand -13.0759 17.3981
rfingers 7.12502
rthumb 13.02 -12.1756
lclavicle 6.27663e-014 -7.15625e-015
lhumerus -38.762 3.39751 83.9174
lradius 39.3382
lwrist -5.42374
lhand -1.45877 41.2422
lfingers 7.12502
lthumb 24.1924 69.7363
rfemur -11.4421 0.661817 24.4489
rtibia 28.8477
rfoot -22.8014 -10.2687
rtoes 12.7674
lfemur -14.4005 -5.26307 -20.4554
ltibia 30.1911
lfoot -22.2683 3.4978
ltoes -3.97481
136
root 1.29194 17.4339 -33.6749 5.64323 1.06848 -1.63756
lowerback 1.04866 -2.47737 1.0232
upperback -1.21132 -3.23489 3.28277
thorax -1.69722 -1.60948 2.87681
lowerneck -15.5319 -4.59642 -5.22448
upperneck 17.1192 -5.12272 0.333515
head 8.00935 -2.7443 0.376638
rclavicle -8.94531e-016 7.95139e-016
rhumerus -37.1868 -20.5801 -61.8107
rradius 20.4431
rwrist 4.60751
rhand -13.3103 17.6919
rfingers 7.12502
rthumb 12.794 -11.896
lclavicle -8.94531e-016 7.95139e-016
lhumerus -39.0259 3.40689 83.859
lradius 39.374
lwrist -5.38514
lhand -1.32925 42.0423
lfingers 7.12502
lthumb 24.3166 70.5199
rfemur -11.5119 0.561211 24.3917
rtibia 28.894
rfoot -22.4909 -9.85523
rtoes 14.4726
lfemur -14.4298 -5.11235 -20.5021
ltibia 30.136
lfoot -22.2914 3.115
ltoes -4.02744
